<svg id="Layer_1" data-name="Layer 1" xmlns="http://www.w3.org/2000/svg" viewBox="0 0 1080 1080"><defs><style>.cls-1,.cls-2{fill:#04c8c8;}.cls-2{font-size:203.36px;font-family:Montserrat-SemiBold, Montserrat;font-weight:600;}</style></defs><path class="cls-1" d="M905.51,347.36,795.26,237.12h-.37L794,238v-2.09l-127-127L636.27,78.12a136.13,136.13,0,0,0-192.53,0L413,108.88l-127,127v1.23h-1.23L174.51,347.36A53.14,53.14,0,0,0,159,384.88V630.39A114.77,114.77,0,0,0,273.74,745.15H410.37a2.61,2.61,0,0,0,2.62-2.61V619.39l-.18-.19-1.06-1H413v-254H667.88l-55.74,55.74a29.47,29.47,0,0,0-8.62,20.83V809.91l.45.46,63.06-63v-2.17H806.28A114.75,114.75,0,0,0,921,630.39V384.88A53.16,53.16,0,0,0,905.51,347.36ZM286,492.38l-1.23-1.24H286Zm508-1.24h1.24L794,492.38ZM667,619.39v-1.23h1.23Zm127,.92v-2.15h2.17Z"/><text class="cls-2" transform="translate(115.01 985.75)">SIMARU</text></svg>