<svg id="Layer_1" data-name="Layer 1" xmlns="http://www.w3.org/2000/svg" viewBox="0 0 1080 1080"><defs><style>.cls-1,.cls-2{fill:#fff;}.cls-2{font-size:203.36px;font-family:Montserrat-SemiBold, Montserrat;font-weight:600;}</style></defs><path class="cls-1" d="M905.51,345,795.26,234.73h-.37l-.87.87v-2.1l-127-127L636.27,75.74a136.11,136.11,0,0,0-192.53,0L413,106.49l-127,127v1.23h-1.23L174.51,345A53.16,53.16,0,0,0,159,382.5V628A114.78,114.78,0,0,0,273.74,742.77H410.37a2.62,2.62,0,0,0,2.62-2.62V617l-.18-.19-1.06-1H413v-254H667.88l-55.74,55.73a29.48,29.48,0,0,0-8.62,20.83V807.52l.45.47L667,744.93v-2.16H806.28A114.76,114.76,0,0,0,921,628V382.5A53.18,53.18,0,0,0,905.51,345ZM286,490l-1.23-1.23H286Zm508-1.23h1.24L794,490ZM667,617v-1.23h1.23Zm127,.92v-2.15h2.17Z"/><text class="cls-2" transform="translate(115.01 983.37)">SIMARU</text></svg>