<svg id="Layer_1" data-name="Layer 1" xmlns="http://www.w3.org/2000/svg" viewBox="0 0 1080 1080"><defs><style>.cls-1{fill:#04c8c8;}.cls-2{fill:#fff;}</style></defs><circle class="cls-1" cx="540" cy="540" r="522.02"/><path class="cls-2" d="M842.67,477.1,752.54,387h-.3l-.7.71V386L647.72,282.15,622.58,257a111.27,111.27,0,0,0-157.38,0l-25.14,25.14L336.24,386v1h-1L245.11,477.1a43.45,43.45,0,0,0-12.7,30.67V708.46a93.82,93.82,0,0,0,93.82,93.82H437.92a2.14,2.14,0,0,0,2.14-2.14V699.47l-.15-.16-.86-.85h1V490.81H648.42l-45.56,45.56a24.07,24.07,0,0,0-7.05,17V855.21l.37.38,51.54-51.54v-1.77H761.55a93.81,93.81,0,0,0,93.81-93.82V507.77A43.44,43.44,0,0,0,842.67,477.1ZM336.24,595.64l-1-1h1Zm415.3-1h1l-1,1ZM647.72,699.47v-1h1Zm103.82.75v-1.76h1.77Z"/></svg>