<svg id="Layer_1" data-name="Layer 1" xmlns="http://www.w3.org/2000/svg" viewBox="0 0 3085.71 1111.64"><defs><style>.cls-1,.cls-2{fill:#04c8c8;}.cls-2{font-size:447.15px;font-family:Montserrat-SemiBold, Montserrat;font-weight:600;}</style></defs><path class="cls-1" d="M1005,468.62,880,343.69h-.42l-1,1V342.3L734.72,198.36l-34.85-34.85a154.27,154.27,0,0,0-218.19,0l-34.85,34.85L302.91,342.3v1.39h-1.39L176.58,468.62A60.23,60.23,0,0,0,159,511.14V789.37A130.07,130.07,0,0,0,289,919.42H443.87a3,3,0,0,0,3-3V776.9l-.2-.22-1.19-1.18h1.39V487.63H735.68l-63.16,63.16a33.38,33.38,0,0,0-9.77,23.61V992.8l.51.52,71.46-71.45v-2.45h157.8a130,130,0,0,0,130.05-130V511.14A60.2,60.2,0,0,0,1005,468.62ZM302.91,633l-1.39-1.4h1.39Zm575.73-1.4H880l-1.4,1.4ZM734.72,776.9v-1.4h1.4Zm143.92,1V775.5h2.45Z"/><text class="cls-2" transform="translate(1126.87 794.77)">SIMARU</text></svg>