<svg id="Layer_1" data-name="Layer 1" xmlns="http://www.w3.org/2000/svg" viewBox="0 0 1080 1080"><defs><style>.cls-1{fill:#04c8c8;}.cls-2,.cls-3{fill:#fff;}.cls-3{font-size:72px;font-family:Montserrat-SemiBold, Montserrat;font-weight:600;}</style></defs><circle class="cls-1" cx="540" cy="540" r="522.02"/><path class="cls-2" d="M809.37,483.85l-80.45-80.44h-.27L728,404v-1.53l-92.67-92.68-22.44-22.44a99.33,99.33,0,0,0-140.49,0L450,309.83l-92.67,92.68v.9h-.9L276,483.85a38.78,38.78,0,0,0-11.34,27.38V690.38a83.75,83.75,0,0,0,83.75,83.74h99.7a1.91,1.91,0,0,0,1.91-1.91V682.35l-.13-.14-.77-.76h.9V496.09H636L595.3,536.76A21.5,21.5,0,0,0,589,552V821.37l.33.34,46-46v-1.58H737a83.74,83.74,0,0,0,83.74-83.74V511.23A38.77,38.77,0,0,0,809.37,483.85ZM357.31,589.67l-.9-.9h.9Zm370.71-.9h.9l-.9.9Zm-92.67,93.58v-.9h.9ZM728,683v-1.57h1.58Z"/><text class="cls-3" transform="translate(389.81 920.21)">SIMARU</text></svg>