<?xml version="1.0" encoding="utf-8"?>
<!-- Generator: Adobe Illustrator 25.0.0, SVG Export Plug-In . SVG Version: 6.00 Build 0)  -->
<svg version="1.1" id="Layer_1" xmlns="http://www.w3.org/2000/svg" xmlns:xlink="http://www.w3.org/1999/xlink" x="0px" y="0px"
	 viewBox="0 0 200 162" style="enable-background:new 0 0 200 162;" xml:space="preserve">
<style type="text/css">
	.st0{fill:#F4F6F9;}
	.st1{fill:#FFFFFF;}
	.st2{fill:#FFE945;}
	.st3{fill:#3F4254;}
	.st4{fill:#9ED5F0;}
</style>
<path class="st0" d="M26.3,89.1c-8.8,2-18.7-2.5-22.9-10.6c-4.2-8-2.2-18.7,4.5-24.8c6.8-6.1,17.8-8,21.6-16.3
	c3.9-8.6-2.3-19.8,2.8-27.7c3-4.6,8.8-6.4,14.3-6.9c12.3-1,25,3.2,34.3,11.4c8.5,7.5,14,18.1,23.3,24.5c11.9,8.3,28.7,9,38.4,19.9
	c7.5,8.4,8.6,21.3,4.3,31.7c-4.3,10.4-13.2,18.3-23.3,23.3s-21.2,7.4-32.3,9.1c-6.5,1-13.2,1.8-19.4-0.2
	c-6.9-2.2-12.3-7.5-17.7-12.3c-8.3-7.4-17.3-13.9-26.9-19.5"/>
<path class="st1" d="M126.2,84.1c-0.4,0.3-1.1,0.9-2,1.6c-0.1-0.2-0.3-0.4-0.5-0.5c-1.2-0.9-2.9,0.2-4.3,0.9
	c-3.5,1.8-7.6,1.3-11.5,1.8c-0.4,0-0.8,0.1-1.2,0.2l0-9.2c0.2-1.4-0.2-2.9-0.7-3.7l0.7-0.4c1.2-0.2,2.4-0.6,3.6-1.1l-0.7,1
	c-0.2,0.8,0.6,1.5,1.4,1.5c0.2,0,0.4,0,0.6-0.1l0.9-0.4c0.1,0,0-0.5,0-1c0,0,0,0,0,0c0.6,0.4,1.4,0.4,2.1,0.2
	c0.6-0.1,1.1-0.4,1.7-0.7c0.4-0.1,0.7-0.2,1.1-0.4c2.8-1.4,4.7-4.4,4.9-7.5c0-0.4,0-0.8,0-1.2c0.1-0.1,0.2-0.2,0.3-0.4
	c0.5-0.9,0.7-2.2,0.2-3.1c-0.4-0.7-1.1-1.1-1.8-1.2c-0.1-0.2-0.2-0.5-0.3-0.7c-0.8-1.8-1.6-3.8-3.4-4.7c-1.4-0.7-3.1-0.6-4.7-0.5
	l-2.1,2.4c1-1.5,2.2-2.8,3.2-4.2c2-2.7,0.2-0.6,1.8-3.4c1.6-2.9,2.4-6.9,1.5-10.1c-0.4-1.3-1.3-2.7-2.7-2.7c-0.8,0-1.5,0.5-2,1.2
	c-0.5,0.7-0.7,1.5-0.9,2.2c-4,12.7-9.8,18.9-21.3,25.7l-1.3-0.2c-4.1,1.1-7.3,4.4-9.7,7.9c-2.4,3.5-4.2,7.4-6.6,10.9
	c-2.2,3-4.8,5.7-7.4,8.3c-1-1.2-2.2-2.3-3.3-3.4l-1,0.6C59.9,82.8,57,59.4,57,59.4c4.7-2.2,14-6.8,14-6.8c-7.2-6-15.2-13-23.3-19.8
	c-6.1-5.2-16.2-7-21.8-0.1c-0.4,0.5-0.8,1-1.1,1.6c-1.7,2.9-2.1,6.5-1.8,9.9c0.2,3.2,1.1,6.4,1.8,9.6c-2.3,0-4.6,1.2-5.9,3.1
	c-1.9,2.8-1.4,7,1.2,9.3c1.3,1.2,3.1,1.7,4.9,1.7c-1.5,6.8-3,12.9-4.7,19.3h0.9c-7.6,11-13,20.3-14.3,33.7c-0.9,8.9-0.2,8-6.2,14.5
	c0,0,24.6-12.8,34.7,5.6c15.2,27.6,49.1,16.4,49.6,13.7c0.5-2.7,0.2-5.6,1.1-8.3c1.8-5.9,8.1-9,12.8-12.9
	c9.1-7.6,12.1-18.9,10.6-30.2l-0.1,0c5.4,0,11.2-5.6,14.3-9.3c1.6-2,2.2-2.7,3.3-5s0.9-4.2,1.2-6.6
	C126.6,83.5,127.8,82.8,126.2,84.1z"/>
<path class="st2" d="M143.9,7.1c0,3.9-3.2,7.1-7.1,7.1c-3.9,0-7.1-3.2-7.1-7.1c0-3.9,3.2-7.1,7.1-7.1C140.8,0,143.9,3.2,143.9,7.1z
	 M179.9,78.1c-2,0-3.5,1.6-3.5,3.5c0,2,1.6,3.5,3.5,3.5c2,0,3.5-1.6,3.5-3.5C183.4,79.7,181.8,78.1,179.9,78.1z"/>
<path class="st3" d="M176.5,19C176.5,19,176.5,19,176.5,19C176.5,19,176.5,19,176.5,19z M177.1,18.6
	C177.2,18.6,177.2,18.6,177.1,18.6C177.1,18.6,177.2,18.6,177.1,18.6C177.2,18.6,177.2,18.6,177.1,18.6z M176,18.9
	C176,18.9,176,18.9,176,18.9C176,19,176,19,176,18.9C176,18.9,176,18.9,176,18.9z M177.4,20c-0.7,0.3-1.5,0.3-2.2-0.1
	c-0.2,0.1-0.5,0.1-0.7-0.1c-0.8-0.9-0.8-2.2-0.1-3.1c0.6-0.7,1.7-1,2.5-0.7c0.9,0.3,1.5,1.1,1.6,2C178.6,18.9,178.1,19.7,177.4,20z
	 M176.8,17.2L176.8,17.2C176.9,17.3,176.9,17.3,176.8,17.2z M177.3,18.3C177.3,18.2,177.3,18.2,177.3,18.3c0-0.1,0-0.1,0-0.2
	c0,0,0,0,0,0c0,0,0,0,0-0.1c0,0,0-0.1,0-0.1c0,0,0,0,0,0c0,0,0-0.1-0.1-0.1c0,0,0-0.1-0.1-0.1c0,0-0.1-0.1,0,0c0,0.1,0,0,0,0
	c0,0,0,0-0.1-0.1c0,0,0,0-0.1-0.1l0,0c0,0-0.1,0-0.1-0.1c0,0,0,0-0.1,0c-0.1,0-0.1,0-0.2,0h0c0,0,0,0-0.1,0c0,0-0.1,0-0.1,0h-0.1
	c0,0-0.1,0-0.1,0c0,0,0,0-0.1,0c0,0,0,0-0.1,0c0,0,0,0,0.1,0c0,0-0.2,0.1-0.2,0.1c0,0,0,0,0,0c0,0,0,0-0.1,0c0,0-0.1,0.1-0.2,0.2
	c0,0,0,0,0,0.1c0,0,0,0.1-0.1,0.1c0,0.1,0,0.2-0.1,0.2v0v0c0,0.1,0,0.2,0,0.2c0,0,0,0,0,0s0,0.1,0,0.1c0,0,0,0.2,0.1,0.2
	c0.2,0,0.5,0,0.6,0.2c0,0,0,0,0,0c0,0,0,0,0.1,0c0,0,0,0,0,0c0,0,0,0,0,0c0,0,0,0,0,0c0,0,0.1,0,0.2,0c0,0,0,0,0,0c0,0,0.1,0,0.1,0
	c0,0,0.1,0,0.1,0c0,0,0,0,0,0h0c0,0,0.1,0,0.2,0c0,0,0.1,0,0.1,0c0,0,0.1-0.1,0.2-0.1c0,0,0,0,0.1,0c0,0,0.1-0.1,0.1-0.1l0,0
	c0,0,0-0.1,0-0.1l0-0.1c0,0,0,0,0-0.1C177.3,18.3,177.3,18.2,177.3,18.3z M177.3,18.3L177.3,18.3L177.3,18.3z M177.3,18.1
	L177.3,18.1L177.3,18.1z M153.5,65.2C153.5,65.2,153.5,65.2,153.5,65.2C153.5,65.1,153.5,65.1,153.5,65.2
	C153.5,65.1,153.5,65.1,153.5,65.2z M152.3,65.5C152.4,65.5,152.4,65.5,152.3,65.5C152.4,65.5,152.4,65.5,152.3,65.5
	C152.4,65.5,152.3,65.5,152.3,65.5z M152.8,65.5C152.9,65.5,152.9,65.5,152.8,65.5C152.9,65.5,152.9,65.5,152.8,65.5z M153.6,64.8
	L153.6,64.8L153.6,64.8z M151.6,66.5c-0.2,0.1-0.5,0.1-0.7-0.1c-0.8-0.9-0.8-2.2-0.1-3.1c0.6-0.7,1.7-1,2.5-0.7
	c0.9,0.3,1.5,1.1,1.6,2c0.1,0.9-0.4,1.7-1.2,2C153,66.9,152.2,66.9,151.6,66.5z M153.1,63.8L153.1,63.8
	C153.2,63.8,153.2,63.8,153.1,63.8z M151.5,64.5L151.5,64.5L151.5,64.5c0,0.2,0,0.2,0,0.3c0,0,0,0,0,0c0,0,0,0.1,0,0.1
	c0,0,0,0.2,0.1,0.2c0.2,0,0.5,0,0.6,0.2c0,0,0,0,0,0c0,0,0,0,0.1,0c0,0,0,0,0,0c0,0,0,0,0,0c0,0,0,0,0,0c0,0,0.1,0,0.2,0
	c0,0,0,0,0,0c0,0,0.1,0,0.1,0c0,0,0.1,0,0.1,0c0,0,0,0,0,0h0c0,0,0.1,0,0.2,0c0,0,0.1,0,0.1,0c0,0,0.1-0.1,0.2-0.1c0,0,0,0,0.1,0
	c0,0,0.1-0.1,0.1-0.1l0,0c0,0,0-0.1,0-0.1l0-0.1c0,0,0,0,0-0.1c0,0,0,0,0,0c0,0,0,0,0,0c0,0,0-0.1,0-0.1c0,0,0,0,0,0c0,0,0,0,0-0.1
	c0,0,0-0.1,0-0.1c0,0,0,0,0,0c0,0,0-0.1-0.1-0.1c0,0,0-0.1-0.1-0.1c0,0-0.1-0.1,0,0c0,0.1,0,0,0,0c0,0,0,0-0.1-0.1c0,0,0,0-0.1-0.1
	l0,0c0,0-0.1,0-0.1-0.1c0,0,0,0-0.1,0c-0.1,0-0.1,0-0.2,0h0c0,0,0,0-0.1,0c0,0-0.1,0-0.1,0h-0.1c0,0-0.1,0-0.1,0c0,0,0,0-0.1,0
	c0,0,0,0-0.1,0c0,0,0,0,0.1,0c0,0-0.2,0.1-0.2,0.1c0,0,0,0,0,0c0,0,0,0-0.1,0c0,0-0.1,0.1-0.2,0.2c0,0,0,0,0,0.1c0,0,0,0.1-0.1,0.1
	C151.5,64.3,151.5,64.4,151.5,64.5z M153.6,64.6L153.6,64.6L153.6,64.6z M173.4,56.4c-0.3,5.4-2.5,10.9-6.5,14.6
	c-2.2,2.1-4.9,3.5-7.4,5.4c-2.4,1.9-4.4,4.3-5.6,7.2c-1.2,2.8-1.7,6-1.2,9c0.4,2.7,1.6,5.4,3.8,7.1c0.6,0.5,0,1.6-0.6,1.1
	c-1-0.7-1.8-1.6-2.4-2.7c-3.1-4.8-2.5-11.3-0.1-16.2c1.3-2.7,3.2-4.8,5.6-6.6c2.3-1.7,4.8-3.2,7-5.1c3.8-3.4,5.9-8.6,6.2-13.7
	c0.3-4.4-1-9.2-4.8-11.8c-0.7,1.4-1.6,2.6-2.7,3.7c-1.7,1.7-3.9,3.1-6.4,3c-1.2,0-2.3-0.4-3.2-1.2c-1-0.9-1.3-2.4-1-3.7
	c0.7-2.6,3.5-4.1,6-4.6c2.3-0.5,4.7-0.1,6.7,0.9c1.9-4.5,1.4-10.1-1.4-14.1c-3.2-4.6-9.1-5.7-14.3-4.8c-4.9,0.8-9.5,3.3-13.4,6.4
	c-4.4,3.6-7.9,8.1-10.5,13c-0.4,0.7-1.5,0.1-1.1-0.6c0.7-1.3,1.5-2.6,2.3-3.9c3.2-4.8,7.3-9.1,12.3-12.1c4.4-2.7,9.7-4.6,15-4.3
	c2.9,0.2,5.8,1,8.1,2.8c2.2,1.7,3.8,4.1,4.7,6.8c1.2,3.7,1,7.9-0.5,11.5C172.1,46.3,173.7,51.5,173.4,56.4z M165.9,44.7
	c0.1-0.2,0.2-0.4,0.3-0.7c-2-1-4.3-1.2-6.5-0.7c-1.2,0.3-2.3,0.8-3.2,1.6c-0.9,0.8-1.7,2.1-1.3,3.3c0.6,2.3,3.7,2.1,5.4,1.3
	C162.9,48.7,164.7,46.8,165.9,44.7z M145.1,52.1c-2.2,2.4-4.4,4.8-6.6,7.1c-0.5,0.6,0.3,1.5,0.9,0.9c2.2-2.4,4.4-4.8,6.6-7.1
	C146.5,52.4,145.6,51.5,145.1,52.1z M144.8,60.8c-1.6,0.6-3.2,1.2-4.9,1.7c-0.3,0.1-0.5,0.4-0.4,0.7c0.1,0.3,0.5,0.5,0.7,0.4
	c1.6-0.6,3.2-1.2,4.9-1.7c0.3-0.1,0.5-0.4,0.4-0.7C145.5,61,145.1,60.7,144.8,60.8z"/>
<path class="st4" d="M211.1,152c2.5-0.2,5.1,0.2,7.4,1c-0.3-1.8,0.2-3.7,1.3-5.1c1.9,2.7,3.4,5.7,4.5,8.8c3.6-2,7.1-4.1,10.7-6.1
	c0.7-0.4,1.3-0.8,1.7-1.4c0.8-1.5-0.2-3.2-1.3-4.5c-1.1-1.3-2.3-2.9-1.7-4.4c1.7,0.2,3.4,0.4,5,0.6c0.3-2,1.2-3.8,2.5-5.4
	c-4.7-3.1-11.3-3.1-16,0.1c1,1.4,0.7,3.7-0.8,4.7c-1.5,1-3.7,0.6-4.7-0.9c-4.4,2.4-7.6,7.1-8.1,12"/>
<path class="st3" d="M172.9,153.5c0.3,0.3,0.9,0.2,1.1-0.2c2.7-8.2,4.2-16.8,5.9-25.3c0.5-2.3,1-4.6,1.5-6.8c0,0,0-0.1,0-0.1
	c0,0,0,0,0-0.1c0.2-0.6-0.6-1-1-0.7c-3.4,0-6.9,0-10.3,0c-1.5-2-2.9-4-4.3-6c0.2-0.4,0.4-0.8,0.4-1.3c0-1.3-1.1-2.4-2.4-2.4h-28.7
	c-1.3,0-2.4,1.1-2.4,2.4c0,0.2,0,0.5,0.1,0.7c0,0,0,0,0,0.1c-1,2-2.1,4.1-3.1,6.1c-0.1,0.2-0.1,0.4,0,0.5c-3.4,0-6.8,0-10.3,0
	c-0.7,0-0.8,1-0.2,1.2c0,0.1,0,0.2,0,0.2c2.6,8.5,5.4,17,8.5,25.4c0.9,2.4,1.7,4.7,2.6,7c0.2,0.5,0.7,0.5,1,0.3
	c0.1,0.2,0.2,0.3,0.5,0.4c10.8,1.1,21.8,1,32.6-0.2C167.2,154.4,170.1,154,172.9,153.5z M135.2,111.9h28.7c0.6,0,1.2,0.5,1.2,1.2
	c0,0.2,0,0.3-0.1,0.5c-0.1,0-0.2,0-0.2,0.1c-0.2,0.1-0.3,0.3-0.3,0.5c-0.1,0.1-0.3,0.1-0.5,0.1h-28.7c-0.6,0-1.2-0.5-1.2-1.2
	C134,112.4,134.5,111.9,135.2,111.9z M133.7,114.9c0.4,0.3,1,0.5,1.5,0.5h28.7c0.4,0,0.7-0.1,1.1-0.2c1.2,1.7,2.5,3.5,3.7,5.2
	c-3.9,0-7.9,0-11.8,0c-8,0-16,0-24,0c-0.7,0-1.4,0-2.1,0C131.8,118.6,132.7,116.8,133.7,114.9z M160.2,136.6
	c-6.9,0.5-13.9,0.6-20.8,0.4c-0.7-3.1-1.4-6.1-2.1-9.2c-0.5-2-1-4.1-1.4-6.1c2.5,0,5.1,0,7.6,0c6,0,12,0,18,0
	C161,126.6,160.6,131.6,160.2,136.6z M140.9,154.4c-3-0.1-6.1-0.3-9.1-0.7c-0.1,0-0.2,0-0.3,0.1c-3.2-8.3-6.1-16.6-8.8-25
	c-0.7-2.3-1.5-4.7-2.2-7c4.7,0,9.3,0,14,0c1.2,5.1,2.4,10.2,3.5,15.3c-3.3-0.1-6.6-0.3-9.8-0.6c-0.8-0.1-0.8,1.2,0,1.2
	c3.4,0.3,6.7,0.5,10.1,0.6c0.5,2.4,1.1,4.8,1.7,7.2c0.5,2.3,1,4.6,1.6,6.9c0.2,0.8,1.4,0.5,1.2-0.3c-1-4.6-2.1-9.1-3.2-13.7
	c6.8,0.2,13.7,0,20.5-0.4c-0.2,2.8-0.4,5.6-0.7,8.3c-0.2,2.3-0.4,4.6-0.5,6.9c-0.1,0.8,1.2,0.8,1.2,0c0.4-5.1,0.8-10.2,1.2-15.3
	c1.5-0.1,3-0.2,4.5-0.4c3.5-0.3,7-0.8,10.5-1.3c0.8-0.1,0.5-1.3-0.3-1.2c-4.8,0.7-9.7,1.3-14.5,1.7c0.2-2.7,0.4-5.3,0.6-7.9
	c0.2-2.3,0.4-4.6,0.5-6.9c1.6,0,3.2,0,4.7,0c4.2,0,8.4,0,12.7,0c-2,8.1-3.3,16.3-5.4,24.4c-0.5,2.1-1.1,4.2-1.7,6.2
	C162.4,154.1,151.6,154.8,140.9,154.4z M199.4,156.7c-2.5-0.1-5-0.1-7.6-0.2c-8.9-0.1-17.9,0.2-26.7,0.8c-0.8,0-0.8-1.2,0-1.2
	c2.5-0.2,5-0.3,7.5-0.5c8.9-0.4,17.8-0.5,26.7-0.2C200.2,155.5,200.2,156.8,199.4,156.7z M175,160.2c-5.7,0.2-11.4,0.5-17.2,0.8
	c-0.8,0-0.8-1.2,0-1.2c5.7-0.2,11.4-0.5,17.2-0.8C175.8,159,175.8,160.2,175,160.2z"/>
<path class="st3" d="M93.3,96.9c-0.4-0.7,0.7-1.3,1.1-0.6c1.5,2.3,4,3.9,6.5,4.8c2.6,1,5.5,1.6,8.3,1.5c0.8,0,0.8,1.2,0,1.2
	c-3,0.1-6.1-0.5-8.9-1.7C97.6,101.1,95,99.4,93.3,96.9z M22.2,58.2c-0.8,0.2-0.5,1.4,0.3,1.2c2.2-0.5,4.7,0.1,6.4,1.6
	c0.2,0.2,0.6,0.2,0.9,0c0.2-0.2,0.2-0.7,0-0.9C27.7,58.3,24.9,57.6,22.2,58.2z M49.6,70.1c-0.8,0.1-1.6,0.1-2.4,0
	c0.1-0.1,0.2-0.2,0.2-0.3c0.4-0.7,0.2-1.6-0.5-2.1c-0.5-0.4-1-0.6-1.7-0.5c0-0.3-0.2-0.7-0.4-0.9c-0.9-1.2-2.9-1.2-3.8,0
	c-0.2,0.2-0.3,0.5-0.4,0.7C39.9,66,39.3,65,38.8,64c-0.3-0.7-1.5-0.4-1.2,0.3c0.5,1.2,1.2,2.4,2.1,3.3c-0.1,0.1-0.2,0.3-0.2,0.5
	c-0.2,1.7-0.2,3.6,1.1,4.8c0.5,0.5,1.3,0.9,2.1,0.8c0.7,0,1.4-0.4,1.9-1c0.5-0.5,0.8-1,1.2-1.6c1.3,0.3,2.7,0.4,4.1,0.2
	c0.3,0,0.5-0.5,0.4-0.7C50.3,70.2,50,70.1,49.6,70.1z M46,68.5c0.2,0.2,0.5,0.4,0.4,0.6c0,0.1-0.1,0.2-0.2,0.3
	c-0.1,0.1-0.2,0.1-0.3,0c-0.2-0.1-0.5,0-0.6,0.2c-0.3-0.1-0.6-0.2-0.9-0.3c0.4-0.2,0.6-0.6,0.8-1C45.5,68.3,45.8,68.3,46,68.5z
	 M43.5,66.6c0.4,0.1,0.7,0.5,0.7,0.9v0c-0.5,0.3-0.8,0.7-1.1,1.2c-0.5-0.2-0.9-0.6-1.3-0.9c0-0.3,0.2-0.7,0.4-0.9
	C42.6,66.5,43,66.4,43.5,66.6z M43.7,71.9c-0.5,0.5-1,0.7-1.6,0.5c-0.5-0.2-1-0.8-1.2-1.4c-0.2-0.6-0.2-1.3-0.2-2
	c0.2,0.2,0.5,0.2,0.7,0.1c1,0.7,2,1.3,3.2,1.7C44.4,71.2,44.1,71.6,43.7,71.9z M41.5,40.5c0-0.2,0-0.3,0.1-0.5
	c0.2-0.5,0.5-1.1,0.7-1.6c0.1-0.1,0.2-0.2,0.4-0.3c0.2,0,0.3,0,0.5,0.1c0.1,0.1,0.2,0.2,0.3,0.4c0,0.2,0,0.3-0.1,0.5
	c-0.2,0.5-0.5,1.1-0.7,1.6c-0.1,0.1-0.2,0.2-0.4,0.3c-0.2,0-0.3,0-0.5-0.1C41.7,40.8,41.5,40.7,41.5,40.5z M45.4,35.7
	c-0.1-0.1-0.2-0.3-0.2-0.5c0-0.2,0.1-0.3,0.2-0.5c0,0,0.1-0.1,0.2-0.1c0.1,0,0.2,0,0.2,0c0.3,0,0.6,0,0.9-0.1c0.2,0,0.3,0.1,0.5,0.2
	c0.1,0.1,0.2,0.3,0.2,0.5c0,0.2-0.1,0.3-0.2,0.5c0,0-0.1,0.1-0.2,0.1c-0.1,0-0.2,0-0.2,0c-0.3,0-0.6,0-0.9,0.1
	C45.7,35.9,45.5,35.8,45.4,35.7z M47.6,44.8c0.1,0.3-0.1,0.7-0.4,0.7c-2,0.4-3.7,1.7-4.5,3.5c-0.1,0.3-0.6,0.4-0.9,0.2
	c-0.3-0.2-0.4-0.5-0.2-0.9c0.9-2.1,2.9-3.7,5.2-4.1C47.1,44.3,47.5,44.5,47.6,44.8z M53.2,40.1c0.1,0.3-0.1,0.7-0.4,0.7
	c-0.1,0-0.3,0-0.4,0.1c-0.1,0-0.2,0-0.2,0.1L52,41c-0.1,0-0.2,0.1-0.4,0.2c0,0-0.1,0.1-0.2,0.1c0,0,0,0-0.1,0
	c-0.1,0.1-0.2,0.2-0.3,0.3c0,0-0.1,0.1-0.2,0.2c0,0-0.1,0.1-0.1,0.2c0,0,0,0,0,0.1c0,0-0.1,0.1-0.1,0.2c0,0-0.1,0.1-0.1,0.2
	c0,0-0.1,0.2,0,0.1c-0.1,0.2-0.1,0.3-0.3,0.4C50.1,43,49.9,43,49.7,43c-0.2,0-0.3-0.2-0.4-0.3c-0.1-0.1-0.1-0.3-0.1-0.5
	c0.3-0.7,0.7-1.2,1.2-1.7c0.5-0.5,1.2-0.8,1.9-0.9C52.8,39.6,53,39.7,53.2,40.1z M90.7,95.5c0.9,0.3,1.7,0.8,2.5,1.5
	c0.2,0.3,0.8,0.5,1.1,0c1.9-2.7,4.4-4.9,7.3-6.4c1.5-0.7,3-1.3,4.6-1.7c1.7-0.4,3.4-0.5,5.2-0.6c1.8-0.1,3.6-0.2,5.4-0.5
	c0.9-0.2,1.7-0.5,2.6-0.8c0.8-0.4,1.5-0.8,2.3-1.2c0.7-0.2,1.5-0.5,2,0.2c0.4,0.5,0.2,1.1,0.1,1.7c-0.4,1.1-1.2,1.6-2.2,2.1
	c-1.9,1-5.3,2.4-4.9,5c0.1,0.8,1.3,0.5,1.2-0.3c-0.1-1,1-1.7,1.7-2.2c1-0.7,2.1-1.2,3.1-1.7c1.1-0.6,2-1.5,2.4-2.8
	c0.4-1.4-0.1-3.1-1.7-3.4c-1.8-0.4-3.4,1-5,1.7c-1.8,0.7-3.7,0.9-5.6,1c-1.9,0.1-3.8,0.2-5.6,0.5c-1.7,0.3-3.3,0.8-4.9,1.5
	c-3.3,1.5-6.3,3.9-8.4,6.8c-3.3-2.6-7.8-2.3-11.3-0.2c-3.7,2.2-6,6.1-8,9.9c-2.2-4.6-5.3-8.8-8.7-12.5c1.6-1.6,3.2-3.2,4.7-5
	c1.6-1.9,3-3.8,4.3-5.9c2.5-4.1,4.6-8.6,8-12c1.8-1.7,3.9-3.2,6.3-3.9c0.1,0,0.2-0.1,0.2-0.2c0.9,2.6,2.5,5,4.7,6.8
	c2.6,2,5.8,3.2,9.1,3.2c0.9,0,1.7-0.1,2.5-0.2c0,0.1,0.1,0.2,0.2,0.3c0,0,0.1,0.1,0.1,0.2c0,0,0,0,0,0.1c0,0,0,0,0,0
	c0.1,0.3,0.2,0.6,0.2,0.9c0,0.1,0,0.2,0,0.2c0,0,0,0.1,0,0.1c0,0,0,0,0,0c0,0.2,0,0.3,0,0.5c0,0.3,0,0.7,0,1c0,0.3,0.3,0.6,0.6,0.6
	c0.4,0,0.6-0.3,0.6-0.6c0.1-0.7,0-1.5-0.1-2.2c-0.1-0.5-0.2-0.9-0.4-1.3h0c0.7-0.1,1.4-0.3,2.1-0.5c0,0.9,0.7,1.7,1.6,1.9
	c1.1,0.2,2.1-0.4,2.9-1c0,0,0,0,0.1,0c1,0,1.9-0.4,2.8-0.8c0.2,0,0.3-0.1,0.5-0.1c1.7-0.5,3.1-1.8,4.1-3.2c1.1-1.5,1.7-3.2,1.9-5
	c0-0.4,0-0.8,0-1.2c0.4-0.6,0.7-1.2,0.7-2c0.2-1.3-0.4-2.5-1.5-3.2c-0.2-0.1-0.5-0.2-0.7-0.3c-0.7-1.6-1.4-3.3-2.7-4.5
	c-1.4-1.3-3.2-1.6-5-1.5c0.2-0.2,0.4-0.5,0.5-0.8c0.8-1.2,1.4-2.5,2-3.9c0.9-2.2,1.6-4.7,1.7-7.1c0.1-2-0.2-4.5-2-5.8
	c-1-0.7-2.2-0.7-3.2,0c-1.1,0.7-1.5,2-1.9,3.2c-0.7,2.2-1.5,4.5-2.5,6.6c-1.7,3.7-3.9,7.1-6.8,10c-3.3,3.4-7.3,6.2-11.4,8.6
	c-0.2-0.5-1-0.4-1.2,0c-0.1,0-0.2-0.1-0.4,0c-4.4,1.2-7.7,4.7-10.2,8.4c-1.5,2.2-2.7,4.4-4,6.7c-1.3,2.2-2.7,4.3-4.3,6.3
	c-1.7,2-3.5,3.9-5.4,5.7c-1.1-1.1-2.2-2.2-3.3-3.3c-0.1-0.1-0.2-0.2-0.4-0.2c-0.5-4-1-8-1.4-12c-0.6-4.7-1.1-9.4-1.7-14.1
	c-0.1-0.9-0.2-1.7-0.3-2.6c4.2-2,8.3-4,12.5-6.1c0.4-0.2,0.8-0.4,1.2-0.6c0.3-0.2,0.4-0.7,0.1-1c-4.9-4.1-9.8-8.3-14.6-12.5
	c-2.6-2.2-5.2-4.4-7.7-6.6c-0.1-0.1-0.2-0.2-0.4-0.3c-1-4.9-10.3-11.4-15.7-6.8c-5.6-2.5-14.6,1.9-17.9,7.1
	c-4.2,6.6-3.9,14.9-1.3,20.4c1,2,2.1,3.9,3.4,5.6c-0.5,2.5,0.2,5.2,1.9,7c-1.1,1.9-2.8,3.4-4.9,4.3c-2.7,1.2-6,1.1-8.7-0.2
	c-0.7-0.3-1.6-0.6-2,0c-0.2,0.4,0,0.9,0.3,1.3c3.9,5.6,10.3,9.4,17.2,10.1v0c-0.5,1.7-0.9,3.5-1.4,5.3c-0.1,0.3,0,0.5,0.2,0.7
	c-4.6,5.4-8.3,11.5-10.7,18.2c-1.2,3.4-2,6.9-2.5,10.5c-0.4,3.1-0.5,6.3-1.2,9.4c-0.8,3.6-2.4,6.9-5.2,9.2c-0.6,0.5,0.3,1.4,0.9,0.9
	c2.5-2.1,4.2-5,5.1-8.1c0.9-3,1.1-6.2,1.5-9.3c0.4-3.5,1-6.9,2-10.3c1.1-3.5,2.5-6.9,4.3-10.1c2-3.6,4.4-6.9,7.1-10
	C31,93,42,97.4,53.1,94.6c2.8-0.7,5.4-1.9,7.8-3.6c-0.1,0.2-0.1,0.3,0.1,0.5c1,1.4,0.9,3.4-0.4,4.6c-1.2,1.2-3.4,1-4.5-0.1
	c-0.4-0.4-1-0.1-1.1,0.5c0,1.3-1,2.2-2,2.8c-1.3,0.7-2.9,1-4.4,1.1c-3.5,0.2-7-0.7-10.3-2c-1.9-0.7-3.8-1.6-5.6-2.5
	c-0.7-0.3-1.4,0.7-0.6,1.1c3.6,1.7,7.2,3.3,11.1,4.1c1.9,0.4,3.9,0.6,5.8,0.5c1.7-0.1,3.3-0.4,4.8-1.2c1.1-0.6,2-1.5,2.4-2.7
	c1.7,1,3.8,0.8,5.3-0.4c1.5-1.3,1.9-3.7,1-5.5c4.4,4.4,8.3,9.4,10.9,15c0,0.1,0.1,0.2,0.2,0.2c-2.1,4.2-4,8.6-7.3,12
	c-3.3,3.4-7.9,4.9-12.2,6.8c-2.2,1-4.5,2.2-6.5,3.7c0,0,0,0,0,0c-1.2-2-2.8-3.4-4.7-4.8c-1.9-1.5-3.7-2.8-4.9-4.9
	c-1.2-2-2-4.2-3.2-6.2c-2.2-3.8-6.2-6.2-10.6-6.3c-1,0-2,0.1-3,0.3c-0.8,0.2-0.5,1.4,0.3,1.2c3.8-0.9,8,0.5,10.7,3.4
	c1.5,1.6,2.4,3.7,3.3,5.6c0.9,2,2,3.9,3.5,5.4c1.6,1.5,3.5,2.7,5.2,4.2c1,0.9,1.8,1.9,2.5,3c-0.7,0.6-1.5,1.3-2.1,2.1
	c-1.2,1.4-2,3-2.3,4.9c-0.2,1.9,0.2,4.1,1.4,5.6c0.7,0.7,1.6,1.2,2.6,1c1-0.2,1.7-1,2.2-1.8c1-1.8,1.2-4.2,1.1-6.2
	c-0.1-1.8-0.6-3.5-1.3-5.1c1.7-1.3,3.6-2.3,5.4-3.2c3.9-1.9,8.2-3.2,11.8-5.9c3.5-2.8,5.7-6.9,7.7-10.8c2-3.9,3.9-8.2,6.9-11.4
	C82.8,96.2,86.8,94.2,90.7,95.5z M111.9,75.4c0,0-0.1,0-0.1,0h0c-0.1,0-0.2,0.1-0.3,0.1c0,0-0.1,0-0.2,0h-0.1c0,0-0.1,0-0.1,0
	c0,0-0.1,0-0.1,0h0c0,0,0,0,0,0c0,0-0.1,0-0.1,0c0,0-0.1,0-0.1,0c0,0,0,0,0,0c-0.1,0-0.1-0.1-0.2-0.1c0,0-0.1,0-0.1-0.1
	c0,0,0,0-0.1-0.1c0,0,0,0,0-0.1c0,0,0,0,0-0.1c0,0,0,0,0-0.1c0,0,0,0,0-0.1c0-0.1,0-0.3,0-0.4c0.3-0.1,0.6-0.2,0.9-0.4
	c0.2,0.5,0.5,0.9,1,1.2C112,75.3,112,75.3,111.9,75.4z M113.5,74.5c-0.4,0-0.7-0.2-1-0.5c-0.1-0.1-0.2-0.3-0.2-0.4c0,0,0,0,0-0.1
	c0.4-0.2,0.8-0.4,1.2-0.7c0,0.6,0.3,1.2,0.8,1.6C114,74.5,113.7,74.5,113.5,74.5z M120,70.8c-0.7,1.1-2.3,2.7-4,2.9
	c-1.2,0.2-1.4-0.7-1.2-1.7c1.2-0.8,2.4-1.6,3.5-2.5c1.1-0.9,2.2-1.7,3.3-2.7C121.4,68.2,120.8,69.6,120,70.8z M117.8,56.3
	c1,1,1.6,2.3,2.2,3.5c-1.7,0.1-3.3,1.4-4.6,2.6l0,0c0,0,0,0,0-0.1c-0.5-1-1.2-2-2.3-2.5c-1.1-0.6-2.3-0.6-3.4-0.2
	c0.6-1.1,1.5-2.2,2.2-3.2c0.3-0.4,0.6-0.7,0.9-1.1C114.5,55,116.4,55,117.8,56.3z M110.2,62.6c0,0,0.1,0,0.1,0c0.1,0,0.2,0,0.3,0.1
	c0,0,0.2,0.1,0.1,0c0,0,0.1,0,0.1,0c0.1,0,0.2,0.1,0.3,0.2c0,0,0.1,0,0.1,0.1c0,0,0.1,0,0.1,0.1c0.2,0.1,0.3,0.3,0.5,0.5
	c0,0,0,0.1,0.1,0.1c0,0.1,0.1,0.2,0.2,0.2s0.1,0.2,0.1,0.2c0,0,0,0,0,0c0,0,0,0.1,0,0.1c0,0.1,0.1,0.2,0.1,0.4
	c-0.2,0.1-0.5,0.2-0.7,0.2c-1,0.2-2.2-0.2-2.6-1.2v0c0-0.1-0.1-0.2-0.1-0.4c0-0.1-0.1-0.2-0.2-0.3c0-0.1,0-0.1,0-0.2
	c0.1,0,0.2,0,0.3,0c0.1,0,0.3-0.1,0.4-0.1l0.2,0c0,0,0.1,0,0.1,0c0.1,0,0.2,0,0.4,0C110.1,62.6,110.3,62.6,110.2,62.6z M112.2,62.1
	c-1-0.8-2.2-1-3.4-0.6c0-0.1,0.1-0.3,0.1-0.4c0,0,0.1,0,0.2,0c1.2-0.5,2.6-0.7,3.7,0c0.8,0.5,1.3,1.4,1.7,2.2
	c-0.3,0.2-0.6,0.5-0.9,0.7C113.3,63.3,112.8,62.6,112.2,62.1z M101,58.5c2.9-2.7,5.3-5.8,7.2-9.3c1-1.9,1.9-3.9,2.7-5.9
	c0.4-1.1,0.8-2.2,1.1-3.3c0.3-1.1,0.7-2.7,2-2.9c1.1-0.2,1.9,1,2.2,1.8c0.3,0.8,0.4,1.7,0.4,2.7c0,2.4-0.6,4.8-1.5,7
	c-0.5,1.4-1.2,2.7-2.1,4c-0.8,1.3-1.8,2.5-2.7,3.6c-0.9,1.1-1.7,2.3-2.3,3.7c-0.6,1.4-0.9,2.7-0.2,4c0.3,0.9,1,1.6,2,2
	c1.1,0.4,2.2,0.3,3.3-0.2c1.2-0.5,2.2-1.5,3.2-2.4c0.9-0.9,1.9-1.8,3.2-2.2c0.9-0.2,2.2-0.1,2.7,0.7c0.8,1.1,0,2.6-0.8,3.4
	c-0.9,1-2,1.8-3.1,2.6c-1.1,0.8-2.1,1.7-3.3,2.5c-10.1,6.4-19,3.7-22.6-1.3c-0.7-1-1.3-2-1.7-3.1C94.2,63.8,97.8,61.4,101,58.5z
	 M46.3,94c-5.5,0.1-10.8-1.3-15.9-3.2c-2.9-1.1-5.8-2.4-8.6-3.8c-0.1-0.3-0.4-0.5-0.7-0.5c1.6-5.9,3-11.9,4.4-17.9c0,0,0,0,0-0.1
	c1.6-0.1,3.2-0.7,4.4-1.8c0.2-0.2,0.3-0.6,0.1-0.9c-0.2-0.2-0.6-0.3-0.9-0.1c-2.3,2-6.2,2-8.6,0c-2.3-2-2.8-5.9-1.1-8.5
	c1.7-2.6,5.5-3.6,8.3-2.2c0.3,0.2,0.7,0,0.8-0.3c0.2-0.3,0-0.7-0.3-0.8c-0.3-0.2-0.6-0.2-1-0.4c0.1-1.7,0.2-3.3,0.2-4.9l0.3-1
	c2.3,0.2,4.6-0.6,6.7-1.5c2.4-1.1,4.8-2.7,6-5c1-2,1-4.4,0.5-6.6c-0.4-1.9-1.2-3.6-2.1-5.3c1,0.2,1.9,0.5,2.7,0.8
	c2.1,0.7,4,1.9,5.7,3.3c2.5,2.1,5,4.2,7.4,6.3c5.1,4.3,10.1,8.7,15.2,12.9c-3.2,1.6-6.4,3.1-9.6,4.7c-1.2,0.6-2.4,1.2-3.6,1.7
	c-0.2,0.1-0.3,0.3-0.3,0.5c0.3,2.8,0.7,5.6,1,8.3c0.6,5.2,1.2,10.3,1.9,15.5c0.2,2.2,0.5,4.3,0.7,6.5c0,0.1,0,0.2,0.1,0.2
	C56,92.7,51.2,94,46.3,94z M61.3,90.6C61.3,90.6,61.3,90.5,61.3,90.6c0.1-0.1,0.1-0.1,0.2-0.1c0,0,0,0,0-0.1c0,0,0.1,0.1,0.1,0.1
	C61.5,90.5,61.4,90.5,61.3,90.6z M48.3,138c-0.1,1-0.3,2-0.7,2.8c-0.3,0.7-1,1.6-1.9,1.5c-0.9-0.1-1.5-1.2-1.7-1.9
	c-0.3-0.9-0.5-1.8-0.5-2.7c0-1.6,0.7-3.1,1.7-4.4c0.6-0.8,1.3-1.5,2.1-2.2c0.1,0.2,0.2,0.5,0.3,0.8C48.3,133.9,48.6,135.9,48.3,138z
	 M47.6,115.1c0.4,0.3,0.9,0.4,1.4,0.4c0,0.2,0.1,0.4,0.2,0.6c0.6,1.3,2.3,2,3.7,2c1.3,0,2.7-1,2.7-2.3c1-0.3,1.9-1.1,2.1-2.3
	c0.2-1.1-0.2-2.2-1.2-2.9c-0.6-0.4-1.3-0.5-2-0.5c-0.1-1.5-1.6-2.7-3.2-2c-1.2-0.5-2.6-0.6-3.7,0.3c-0.9,0.7-1.4,2.2-0.7,3.3
	C46.2,112.8,46.4,114.3,47.6,115.1z M48.1,111.2c-0.6-0.5-0.2-1.5,0.4-2c0.5-0.3,1-0.3,1.6-0.2c-0.3,0.5-0.5,1.2-0.2,1.8
	c0.3,1,1.4,1.8,2.5,1.7c0.3,0,0.6-0.2,0.6-0.6c0-0.3-0.3-0.7-0.6-0.6c-1,0.1-1.7-1.1-1-1.8c0.3,0.1,0.5,0.3,0.7,0.4
	c0.4,0.2,0.7,0,0.9-0.3c0.2,0.3,0.3,0.7,0.1,1.1c-0.2,0.5,0.3,1.2,0.9,0.9c1.2-0.7,2.7,0.4,2.5,1.7c-0.1,0.7-0.6,1.2-1.2,1.3
	c-0.5-0.8-1.6-1.2-2.5-0.6c-0.4,0.2-0.4,0.7-0.1,1c0.5,0.5,1.1,0.8,1.7,0.9c-0.2,0.8-1.1,1.1-1.8,1c-0.7-0.1-1.7-0.5-2.1-1.1
	c-0.2-0.2-0.2-0.4-0.2-0.7c0.5-0.3,0.9-0.7,1.1-1.2c0.2-0.3-0.2-0.8-0.6-0.8c-0.7,0.1-1.2,0.5-1.5,1.1c-0.3,0-0.7,0-0.9-0.2
	c-0.6-0.5-0.5-1.4,0-1.9C48.4,111.9,48.4,111.4,48.1,111.2z M128.9,83c-0.3,2.3-1,4.6-2,6.7c-3.2,7-10,11-16.7,14.2
	c0.6,5,0.3,10.1-1.1,14.9c-1.3,4.3-3.5,8.3-6.5,11.7c-1.5,1.7-3.2,3.3-5.1,4.7c-1.7,1.3-3.5,2.6-5.2,3.9c-1.6,1.3-3.2,2.7-4.4,4.5
	c-1.4,2-1.9,4.3-2.1,6.7c-0.2,2.4-0.2,4.9-1.3,7.2c-0.8,1.9-2.3,3.5-4.4,4c-0.8,0.2-1.1-1-0.3-1.2c2.3-0.6,3.6-2.8,4.2-4.9
	c0.7-2.8,0.4-5.8,1.2-8.7c1.1-4.2,4.4-7.1,7.6-9.6c1.7-1.3,3.4-2.5,5.1-3.9c1.7-1.5,3.4-3.1,4.8-4.9c5.4-6.9,7.3-15.7,6.4-24.2
	c-0.5-0.1-0.8-0.9-0.2-1.1c2.1-0.9,4.1-1.9,6.1-3.1c3.2-1.8,6.1-4,8.4-6.9c2.4-3,3.8-6.7,4.4-10.5C127.8,81.9,129.1,82.2,128.9,83z"
	/>
<path class="st4" d="M135.4,66.2c0-2.5-2.9-3.9-4.9-2.2l-19.3,16.7c-0.6,0.5-1,1.4-1,2.2V87c0.8,0,1.6-0.1,2.4-0.1
	c1.9-0.1,3.9-0.3,5.6-1c1.6-0.6,3.2-2.1,5-1.7c0.7,0.2,1.2,0.6,1.5,1.2l3-2.6c0,0,0-0.1,0-0.1c0-0.4,0.3-0.5,0.6-0.5l6-5.2
	c0.6-0.5,1-1.4,1-2.2L135.4,66.2z"/>
<path class="st3" d="M122.6,84.7c1.3-1,2.6-2,3.9-3c2-1.5,4-3,5.9-4.7c0.5-0.4,1-0.9,1.1-1.5c0.2-0.8,0-1.7,0-2.6
	c-0.2-2.9-0.3-5.8-0.5-8.7c0-0.8-1.3-0.8-1.2,0c0.1,2.5,0.2,4.9,0.4,7.4c0,1,0.2,2.1,0.2,3.1c0,0.6-0.3,0.9-0.7,1.2
	c-1.8,1.5-3.7,2.9-5.6,4.4c-2,1.5-3.9,3.1-5.9,4.6"/>
</svg>
